<?xml version="1.0" ?>
<!-- Uploaded to: SVG Repo, www.svgrepo.com, Generator: SVG Repo Mixer Tools -->
<svg fill="#000000" width="800px" height="800px" viewBox="0 0 24 24" xmlns="http://www.w3.org/2000/svg">
<title/>
<g data-name="Layer 2" id="Layer_2">
<path d="M18.08,13.19h0A7.41,7.41,0,0,0,19,6.87V2H17V6.25a18.09,18.09,0,0,1-10,0V2H5V6.87a7.41,7.41,0,0,0,.92,6.31h0L3.72,22H20.28ZM6.28,20l1.8-7.19-.49-.74a5.43,5.43,0,0,1-.86-3.81,20.14,20.14,0,0,0,10.55,0,5.43,5.43,0,0,1-.86,3.81l-.49.74L17.72,20Z"/>
</g>
</svg>