<?xml version="1.0" encoding="iso-8859-1"?>
<!-- Uploaded to: SVG Repo, www.svgrepo.com, Generator: SVG Repo Mixer Tools -->
<!DOCTYPE svg PUBLIC "-//W3C//DTD SVG 1.1//EN" "http://www.w3.org/Graphics/SVG/1.1/DTD/svg11.dtd">
<svg fill="#000000" version="1.1" id="Capa_1" xmlns="http://www.w3.org/2000/svg" xmlns:xlink="http://www.w3.org/1999/xlink" 
	 width="800px" height="800px" viewBox="0 0 492.146 492.146"
	 xml:space="preserve">
<g>
	<g>
		<path d="M413.052,0H79.096c-2.505,0-4.542,2.037-4.542,4.542v483.063c0,2.504,2.037,4.541,4.542,4.541h137.402
			c1.196,0,2.366-0.484,3.212-1.33c0.846-0.847,1.33-2.018,1.33-3.213c0,0-0.062-328.871-0.062-329.487
			c0-13.838,11.258-25.096,25.096-25.096c13.837,0,25.095,11.258,25.095,25.096c0,0.616-0.061,329.487-0.061,329.487
			c0,1.195,0.482,2.366,1.33,3.213c0.855,0.856,1.998,1.33,3.211,1.33h137.402c2.506,0,4.541-2.037,4.541-4.541V4.542
			C417.593,2.037,415.558,0,413.052,0z M83.636,125.404V55.146h70.26C151.624,93.059,121.55,123.132,83.636,125.404z
			 M246.074,123.938c-18.846,0-34.179,15.332-34.179,34.178c0,0.246,0.01,52.718,0.021,115.714l0.039,209.233H83.636V134.501
			c20.669-1.107,40.13-9.802,54.842-24.514c14.712-14.713,23.406-34.172,24.514-54.841h166.166
			c1.107,20.669,9.803,40.129,24.514,54.841c14.713,14.712,34.172,23.406,54.842,24.514v348.562h-128.32l0.039-209.233
			c0.012-62.996,0.021-115.468,0.021-115.714C280.251,139.271,264.919,123.938,246.074,123.938z M408.511,55.146v70.258
			c-37.912-2.272-67.986-32.345-70.26-70.258H408.511z M408.511,9.082v36.981H83.636V9.082H408.511z"/>
		<path d="M246.074,44.04c9.525,0,17.269-7.748,17.269-17.271c0-9.522-7.744-17.27-17.269-17.27c-9.523,0-17.271,7.747-17.271,17.27
			S236.55,44.04,246.074,44.04z M246.074,18.581c4.516,0,8.187,3.673,8.187,8.188c0,4.516-3.671,8.189-8.187,8.189
			s-8.188-3.674-8.188-8.189C237.885,22.254,241.558,18.581,246.074,18.581z"/>
		<path d="M104.555,205.766h60.621c2.505,0,4.542-2.037,4.542-4.541c0-2.505-2.037-4.542-4.542-4.542h-60.621
			c-2.505,0-4.542,2.037-4.542,4.542C100.013,203.729,102.05,205.766,104.555,205.766z"/>
		<path d="M114.294,219.188c0,2.504,2.037,4.541,4.542,4.541h60.622c2.504,0,4.541-2.037,4.541-4.541
			c0-2.505-2.037-4.542-4.541-4.542h-60.622C116.332,214.646,114.294,216.683,114.294,219.188z"/>
		<path d="M169.718,246.073c0-2.505-2.037-4.542-4.542-4.542h-60.621c-2.505,0-4.542,2.037-4.542,4.542s2.037,4.542,4.542,4.542
			h60.621C167.681,250.615,169.718,248.578,169.718,246.073z"/>
		<path d="M312.688,302.762h60.621c2.506,0,4.543-2.037,4.543-4.543c0-2.504-2.037-4.541-4.543-4.541h-60.621
			c-2.504,0-4.541,2.037-4.541,4.541C308.147,300.725,310.187,302.762,312.688,302.762z"/>
		<path d="M325.485,276.211h60.623c2.504,0,4.543-2.037,4.543-4.541c0-2.506-2.039-4.543-4.543-4.543h-60.623
			c-2.502,0-4.539,2.037-4.539,4.543C320.946,274.174,322.983,276.211,325.485,276.211z"/>
		<path d="M184,361.537c0-2.505-2.037-4.542-4.541-4.542h-60.622c-2.505,0-4.542,2.037-4.542,4.542c0,2.504,2.037,4.541,4.542,4.541
			h60.622C181.962,366.078,184,364.041,184,361.537z"/>
		<path d="M188.888,375.855h-60.621c-2.505,0-4.542,2.037-4.542,4.541s2.037,4.541,4.542,4.541h60.621
			c2.504,0,4.541-2.037,4.541-4.541S191.392,375.855,188.888,375.855z"/>
	</g>
</g>
</svg>